<mxfile host="app.diagrams.net" agent="Mozilla/5.0 (Macintosh; Intel Mac OS X 10_15_7) AppleWebKit/537.36 (KHTML, like Gecko) Chrome/127.0.0.0 Safari/537.36" version="24.7.12">
  <diagram name="Page-1" id="jKDYuJlO0NlILWyYBgBg">
    <mxGraphModel dx="1246" dy="571" grid="1" gridSize="10" guides="1" tooltips="1" connect="1" arrows="1" fold="1" page="1" pageScale="1" pageWidth="850" pageHeight="1100" math="0" shadow="0">
      <root>
        <mxCell id="0" />
        <mxCell id="1" parent="0" />
        <mxCell id="TG95jlsXKwge-0ZsFnRQ-3" value="" style="edgeStyle=orthogonalEdgeStyle;rounded=0;orthogonalLoop=1;jettySize=auto;html=1;" edge="1" parent="1" source="TG95jlsXKwge-0ZsFnRQ-1" target="TG95jlsXKwge-0ZsFnRQ-2">
          <mxGeometry relative="1" as="geometry" />
        </mxCell>
        <mxCell id="TG95jlsXKwge-0ZsFnRQ-5" value="" style="edgeStyle=orthogonalEdgeStyle;rounded=0;orthogonalLoop=1;jettySize=auto;html=1;" edge="1" parent="1" source="TG95jlsXKwge-0ZsFnRQ-1" target="TG95jlsXKwge-0ZsFnRQ-4">
          <mxGeometry relative="1" as="geometry" />
        </mxCell>
        <mxCell id="TG95jlsXKwge-0ZsFnRQ-1" value="YTHUB" style="rounded=1;whiteSpace=wrap;html=1;" vertex="1" parent="1">
          <mxGeometry x="330" y="50" width="120" height="60" as="geometry" />
        </mxCell>
        <mxCell id="TG95jlsXKwge-0ZsFnRQ-2" value="Creator" style="rounded=1;whiteSpace=wrap;html=1;" vertex="1" parent="1">
          <mxGeometry x="230" y="190" width="120" height="60" as="geometry" />
        </mxCell>
        <mxCell id="TG95jlsXKwge-0ZsFnRQ-4" value="Editor" style="rounded=1;whiteSpace=wrap;html=1;" vertex="1" parent="1">
          <mxGeometry x="410" y="190" width="120" height="60" as="geometry" />
        </mxCell>
      </root>
    </mxGraphModel>
  </diagram>
</mxfile>
